<svg xmlns="http://www.w3.org/2000/svg" width="220.844" height="22.156" viewBox="0 0 220.844 22.156">
  <defs>
    <style>
      .cls-1 {
        fill-rule: evenodd;
      }
    </style>
  </defs>
  <path id="logo" class="cls-1" d="M402.646,47.963h-2.941l-8.792,20.713h2.6l2.534-6.008h10.263l2.534,6.008h2.6ZM396.951,60.51L401.175,50.4,405.4,60.51h-8.448Zm18.961-13.736h-2.347v21.9h2.347v-21.9Zm6.413,0h-2.346v21.9h2.346v-21.9Zm17.709,21.9V53.031h-2.347v9.011a4.612,4.612,0,0,1-1.376,3.443,4.674,4.674,0,0,1-3.348,1.313,4.162,4.162,0,0,1-3.16-1.282,4.786,4.786,0,0,1-1.22-3.443V53.031h-2.347v9.1a6.747,6.747,0,0,0,1.94,5.038,5.448,5.448,0,0,0,1.971,1.314,7.417,7.417,0,0,0,2.691.439,5.039,5.039,0,0,0,2.784-.783,7.823,7.823,0,0,0,2.065-1.908v2.441h2.347Zm12.171-15.9a5.935,5.935,0,0,0-5.757,4.1V53.031H444.1V68.676h2.347V61.792a7.344,7.344,0,0,1,1.5-4.631,5.013,5.013,0,0,1,4.13-2.033h0.281V52.781h-0.156Zm5.444,12.578a5.677,5.677,0,0,1-1.721-3.567h13.11V60.854a8.14,8.14,0,0,0-2.065-5.725,8.08,8.08,0,0,0-11.389,0,8.14,8.14,0,0,0-2.065,5.725,8.006,8.006,0,0,0,2.159,5.725,7.571,7.571,0,0,0,5.757,2.347,7.428,7.428,0,0,0,4.552-1.315,7.543,7.543,0,0,0,2.582-3.44H466a4.734,4.734,0,0,1-4.537,2.627,5.292,5.292,0,0,1-3.817-1.439h0Zm7.259-9.106A5.563,5.563,0,0,1,466.6,59.6H455.96a5.557,5.557,0,0,1,1.689-3.348,5.568,5.568,0,0,1,7.259,0h0Zm17.24,7.978a8.55,8.55,0,0,1-2.034-5.913,8.555,8.555,0,0,1,2.034-5.913,7.008,7.008,0,0,1,2.471-1.768A9.284,9.284,0,0,1,488.311,50a6.722,6.722,0,0,1,6.383,4.161h2.472a9.29,9.29,0,0,0-3.411-4.63,9.988,9.988,0,0,0-5.976-1.815,9.471,9.471,0,0,0-7.352,3.1,10.837,10.837,0,0,0-2.66,7.509,10.837,10.837,0,0,0,2.66,7.51,9.471,9.471,0,0,0,7.352,3.1,9.981,9.981,0,0,0,5.976-1.816,9.288,9.288,0,0,0,3.411-4.63h-2.472a6.719,6.719,0,0,1-6.383,4.162,7.786,7.786,0,0,1-6.163-2.41h0Zm21.181,1.127a5.682,5.682,0,0,1-1.721-3.567h13.11V60.854a8.14,8.14,0,0,0-2.065-5.725,8.08,8.08,0,0,0-11.389,0,8.144,8.144,0,0,0-2.065,5.725,8.006,8.006,0,0,0,2.159,5.725,7.571,7.571,0,0,0,5.757,2.347,7.433,7.433,0,0,0,4.553-1.315,7.548,7.548,0,0,0,2.581-3.44h-2.566a4.734,4.734,0,0,1-4.537,2.627,5.292,5.292,0,0,1-3.817-1.439h0Zm7.259-9.106a5.563,5.563,0,0,1,1.69,3.348H501.64a5.557,5.557,0,0,1,1.689-3.348,5.568,5.568,0,0,1,7.259,0h0ZM525.7,52.781a5.935,5.935,0,0,0-5.757,4.1V53.031H517.6V68.676h2.347V61.792a7.344,7.344,0,0,1,1.5-4.631,5.013,5.013,0,0,1,4.13-2.033h0.281V52.781H525.7Zm14.486,15.9h2.347V53.031h-2.347v2.535a6.206,6.206,0,0,0-5.444-2.786,7.27,7.27,0,0,0-5.663,2.348,8.969,8.969,0,0,0,0,11.45,7.092,7.092,0,0,0,5.507,2.347,6.329,6.329,0,0,0,5.6-2.754v2.5Zm-9.355-3.63a6.714,6.714,0,0,1,0-8.385,5.2,5.2,0,0,1,4.068-1.753,4.955,4.955,0,0,1,4,1.753,6.946,6.946,0,0,1,0,8.385,4.953,4.953,0,0,1-4,1.752,5.2,5.2,0,0,1-4.068-1.752h0Zm18.116-12.015H546.6V68.676h2.347V59.32a4.274,4.274,0,0,1,1.251-3.254,4.091,4.091,0,0,1,2.973-1.159,3.623,3.623,0,0,1,2.784,1.189,4.672,4.672,0,0,1,1.095,3.192v9.387H559.4V59.32a4.274,4.274,0,0,1,1.251-3.254,4.091,4.091,0,0,1,2.973-1.159,3.626,3.626,0,0,1,2.785,1.189,4.677,4.677,0,0,1,1.1,3.192v9.387h2.346V59.227a6.615,6.615,0,0,0-1.752-4.693,5.725,5.725,0,0,0-1.861-1.3,5.456,5.456,0,0,0-2.191-.454,5.735,5.735,0,0,0-2.049.345,6.01,6.01,0,0,0-3.317,2.815,5.652,5.652,0,0,0-2.08-2.331,5.372,5.372,0,0,0-2.895-.83,5.166,5.166,0,0,0-4.755,2.629V53.031Zm24.811,15.645h2.347V53.031h-2.347V68.676Zm-0.094-21.339V50.4H576.2V47.337h-2.535Zm9.418,17.709a6.5,6.5,0,0,1,0-8.385,5.1,5.1,0,0,1,1.767-1.282,6.222,6.222,0,0,1,2.55-.471,4.4,4.4,0,0,1,2.66.846,4.886,4.886,0,0,1,1.689,2.191h2.535a7.142,7.142,0,0,0-2.628-3.724,7.935,7.935,0,0,0-4.756-1.439,7.258,7.258,0,0,0-5.6,2.348,8.867,8.867,0,0,0,0,11.45,7.261,7.261,0,0,0,5.6,2.347,7.931,7.931,0,0,0,4.756-1.439,7.141,7.141,0,0,0,2.628-3.723h-2.535a4.881,4.881,0,0,1-1.689,2.191,4.4,4.4,0,0,1-2.66.844,5.487,5.487,0,0,1-4.317-1.752h0Zm26.313,3.63h2.346V53.031H609.4v2.535a6.208,6.208,0,0,0-5.444-2.786,7.272,7.272,0,0,0-5.664,2.348,8.969,8.969,0,0,0,0,11.45,7.093,7.093,0,0,0,5.507,2.347,6.332,6.332,0,0,0,5.6-2.754v2.5Zm-9.355-3.63a6.711,6.711,0,0,1,0-8.385,5.2,5.2,0,0,1,4.067-1.753,4.953,4.953,0,0,1,4,1.753,6.946,6.946,0,0,1,0,8.385,4.951,4.951,0,0,1-4,1.752,5.193,5.193,0,0,1-4.067-1.752h0Z" transform="translate(-390.906 -46.781)"/>
</svg>
